<svg xmlns="http://www.w3.org/2000/svg" viewBox="0 0 1280 720">
  <rect width="1280" height="720" fill="#071014"/>
  <path d="M0 520c185-92 343-92 474 0s293 92 488 0 318-92 318-92v292H0Z" fill="#10342c" opacity=".75"/>
  <path d="M0 575c173-70 323-70 450 0s280 70 463 0 367-70 367-70v215H0Z" fill="#134638" opacity=".78"/>
  <circle cx="1035" cy="150" r="54" fill="#f5c542" opacity=".72"/>
  <rect x="430" y="102" width="420" height="516" rx="22" fill="#000" opacity=".28"/>
  <rect x="430" y="84" width="420" height="516" rx="22" fill="#eaf2e9"/>
  <rect x="596" y="124" width="88" height="88" rx="24" fill="#101820"/>
  <circle cx="624" cy="154" r="15" fill="#39d98a"/>
  <circle cx="656" cy="154" r="15" fill="#39d98a"/>
  <path d="M608 172c0-31 25-56 32-56s32 25 32 56c0 32-14 56-32 56s-32-24-32-56Z" fill="#39d98a"/>
  <path d="M616 178c7 13 15 20 24 20s17-7 24-20" fill="none" stroke="#101820" stroke-width="7" stroke-linecap="round"/>
  <text x="640" y="270" text-anchor="middle" font-family="Noto Sans, sans-serif" font-size="36" font-weight="700" fill="#101820">KokinOS</text>
  <text x="640" y="306" text-anchor="middle" font-family="Noto Sans, sans-serif" font-size="14" fill="#5e6a65">Welcome back</text>
  <rect x="470" y="334" width="340" height="46" rx="12" fill="#f8fbf5" stroke="#d3ded6"/>
  <rect x="470" y="398" width="340" height="46" rx="12" fill="#f8fbf5" stroke="#2aa8ff" stroke-width="2"/>
  <rect x="470" y="462" width="340" height="46" rx="12" fill="#f8fbf5" stroke="#d3ded6"/>
  <rect x="470" y="528" width="340" height="48" rx="12" fill="#39d98a" stroke="#269f63"/>
  <text x="490" y="363" font-family="Noto Sans, sans-serif" font-size="14" fill="#101820">kokin</text>
  <text x="490" y="427" font-family="Noto Sans, sans-serif" font-size="14" fill="#7b8782">Password</text>
  <text x="490" y="491" font-family="Noto Sans, sans-serif" font-size="14" fill="#101820">Plasma</text>
  <text x="640" y="558" text-anchor="middle" font-family="Noto Sans, sans-serif" font-size="15" font-weight="700" fill="#071014">Log In</text>
</svg>
